<mxfile host="app.diagrams.net" modified="2022-02-17T20:36:32.176Z" agent="5.0 (Windows NT 10.0; Win64; x64) AppleWebKit/537.36 (KHTML, like Gecko) Chrome/98.0.4758.87 Safari/537.36" etag="E10xLkxvCg__ufCsLAGT" version="16.5.6" type="github">
  <diagram id="T61Gr9q1ouyN173J7yTx" name="Page-1">
    <mxGraphModel dx="782" dy="482" grid="1" gridSize="10" guides="1" tooltips="1" connect="1" arrows="1" fold="1" page="1" pageScale="1" pageWidth="850" pageHeight="1100" math="0" shadow="0">
      <root>
        <mxCell id="0" />
        <mxCell id="1" parent="0" />
        <mxCell id="e3Spp6es9pi1JCkKxHhB-1" value="" style="rounded=0;whiteSpace=wrap;html=1;fillColor=#FFFFFF;strokeColor=none;shadow=0;" parent="1" vertex="1">
          <mxGeometry x="110" y="170" width="620" height="400" as="geometry" />
        </mxCell>
        <mxCell id="32RbRDJqCRU-e4tndQuH-1" value="" style="aspect=fixed;html=1;points=[];align=center;image;fontSize=12;image=img/lib/azure2/databases/SQL_Database.svg;sketch=0;" parent="1" vertex="1">
          <mxGeometry x="540" y="190" width="60" height="80" as="geometry" />
        </mxCell>
        <mxCell id="32RbRDJqCRU-e4tndQuH-2" value="&lt;p&gt;&lt;font face=&quot;Raleway&quot; data-font-src=&quot;https://fonts.googleapis.com/css?family=Raleway&quot; size=&quot;1&quot;&gt;&lt;b style=&quot;font-size: 16px&quot;&gt;Application&lt;/b&gt;&lt;/font&gt;&lt;/p&gt;" style="rounded=0;whiteSpace=wrap;html=1;shadow=1;fillColor=#fff2cc;strokeColor=#d6b656;" parent="1" vertex="1">
          <mxGeometry x="210" y="200" width="130" height="60" as="geometry" />
        </mxCell>
        <mxCell id="32RbRDJqCRU-e4tndQuH-6" value="" style="endArrow=classic;html=1;fontFamily=Raleway;fontSource=https%3A%2F%2Ffonts.googleapis.com%2Fcss%3Ffamily%3DRaleway;fontSize=16;curved=1;exitX=1.005;exitY=0.367;exitDx=0;exitDy=0;entryX=-0.044;entryY=0.333;entryDx=0;entryDy=0;entryPerimeter=0;exitPerimeter=0;" parent="1" source="32RbRDJqCRU-e4tndQuH-2" target="32RbRDJqCRU-e4tndQuH-1" edge="1">
          <mxGeometry relative="1" as="geometry">
            <mxPoint x="380" y="200" as="sourcePoint" />
            <mxPoint x="540" y="220" as="targetPoint" />
          </mxGeometry>
        </mxCell>
        <mxCell id="32RbRDJqCRU-e4tndQuH-7" value="SQL Query" style="edgeLabel;resizable=0;align=center;verticalAlign=middle;shadow=1;fontFamily=Raleway;fontSource=https%3A%2F%2Ffonts.googleapis.com%2Fcss%3Ffamily%3DRaleway;fontSize=11;labelBackgroundColor=#FFFFFF;html=1;fontColor=default;" parent="32RbRDJqCRU-e4tndQuH-6" connectable="0" vertex="1">
          <mxGeometry relative="1" as="geometry" />
        </mxCell>
        <mxCell id="32RbRDJqCRU-e4tndQuH-8" value="" style="endArrow=none;html=1;fontFamily=Raleway;fontSource=https%3A%2F%2Ffonts.googleapis.com%2Fcss%3Ffamily%3DRaleway;fontSize=16;curved=1;exitX=1;exitY=0.75;exitDx=0;exitDy=0;startArrow=classic;startFill=1;endFill=0;entryX=-0.033;entryY=0.617;entryDx=0;entryDy=0;entryPerimeter=0;" parent="1" source="32RbRDJqCRU-e4tndQuH-2" target="32RbRDJqCRU-e4tndQuH-1" edge="1">
          <mxGeometry relative="1" as="geometry">
            <mxPoint x="350" y="210" as="sourcePoint" />
            <mxPoint x="540" y="227.27272727272725" as="targetPoint" />
          </mxGeometry>
        </mxCell>
        <mxCell id="32RbRDJqCRU-e4tndQuH-9" value="SQL Result" style="edgeLabel;resizable=0;html=1;align=center;verticalAlign=middle;shadow=1;fontFamily=Raleway;fontSource=https%3A%2F%2Ffonts.googleapis.com%2Fcss%3Ffamily%3DRaleway;fontSize=11;labelBackgroundColor=#FFFFFF;" parent="32RbRDJqCRU-e4tndQuH-8" connectable="0" vertex="1">
          <mxGeometry relative="1" as="geometry" />
        </mxCell>
        <mxCell id="32RbRDJqCRU-e4tndQuH-11" style="edgeStyle=orthogonalEdgeStyle;curved=1;orthogonalLoop=1;jettySize=auto;html=1;exitX=0.5;exitY=1;exitDx=0;exitDy=0;exitPerimeter=0;fontFamily=Raleway;fontSource=https%3A%2F%2Ffonts.googleapis.com%2Fcss%3Ffamily%3DRaleway;fontSize=11;startArrow=classic;startFill=1;endArrow=none;endFill=0;" parent="1" edge="1">
          <mxGeometry relative="1" as="geometry">
            <mxPoint x="425" y="580" as="sourcePoint" />
            <mxPoint x="425" y="580" as="targetPoint" />
          </mxGeometry>
        </mxCell>
        <mxCell id="32RbRDJqCRU-e4tndQuH-12" value="" style="verticalLabelPosition=bottom;verticalAlign=top;html=1;shape=mxgraph.basic.rect;fillColor2=none;strokeWidth=1;size=20;indent=5;shadow=0;fontFamily=Raleway;fontSource=https%3A%2F%2Ffonts.googleapis.com%2Fcss%3Ffamily%3DRaleway;fontSize=11;dashed=1;sketch=0;fillColor=default;" parent="1" vertex="1">
          <mxGeometry x="135" y="320" width="570" height="230" as="geometry" />
        </mxCell>
        <mxCell id="32RbRDJqCRU-e4tndQuH-13" value="&lt;p&gt;&lt;font face=&quot;Raleway&quot;&gt;&lt;span style=&quot;font-size: 16px&quot;&gt;&lt;b&gt;Parse&lt;/b&gt;&lt;/span&gt;&lt;/font&gt;&lt;/p&gt;" style="rounded=0;whiteSpace=wrap;html=1;shadow=1;fillColor=#f8cecc;strokeColor=#b85450;" parent="1" vertex="1">
          <mxGeometry x="251.25" y="397.5" width="80" height="75" as="geometry" />
        </mxCell>
        <mxCell id="32RbRDJqCRU-e4tndQuH-14" value="&lt;p&gt;&lt;font face=&quot;Raleway&quot;&gt;&lt;span style=&quot;font-size: 16px&quot;&gt;&lt;b&gt;Optimize&lt;/b&gt;&lt;/span&gt;&lt;/font&gt;&lt;/p&gt;" style="rounded=0;whiteSpace=wrap;html=1;shadow=1;fillColor=#dae8fc;strokeColor=#6c8ebf;" parent="1" vertex="1">
          <mxGeometry x="383.75" y="397.5" width="80" height="75" as="geometry" />
        </mxCell>
        <mxCell id="32RbRDJqCRU-e4tndQuH-15" value="&lt;p&gt;&lt;font face=&quot;Raleway&quot;&gt;&lt;span style=&quot;font-size: 16px&quot;&gt;&lt;b&gt;Execute&lt;/b&gt;&lt;/span&gt;&lt;/font&gt;&lt;/p&gt;" style="rounded=0;whiteSpace=wrap;html=1;shadow=1;fillColor=#d5e8d4;strokeColor=#82b366;" parent="1" vertex="1">
          <mxGeometry x="513.75" y="397.5" width="80" height="75" as="geometry" />
        </mxCell>
        <mxCell id="32RbRDJqCRU-e4tndQuH-16" value="Inside the Database Engine" style="text;strokeColor=none;fillColor=none;html=1;fontSize=12;fontStyle=1;verticalAlign=middle;align=center;shadow=1;dashed=1;fontFamily=Raleway;fontSource=https%3A%2F%2Ffonts.googleapis.com%2Fcss%3Ffamily%3DRaleway;" parent="1" vertex="1">
          <mxGeometry x="140" y="320" width="180" height="40" as="geometry" />
        </mxCell>
        <mxCell id="32RbRDJqCRU-e4tndQuH-21" value="" style="endArrow=classic;html=1;fontFamily=Raleway;fontSource=https%3A%2F%2Ffonts.googleapis.com%2Fcss%3Ffamily%3DRaleway;fontSize=12;fontColor=default;curved=1;exitX=1;exitY=0.5;exitDx=0;exitDy=0;entryX=0;entryY=0.5;entryDx=0;entryDy=0;" parent="1" source="32RbRDJqCRU-e4tndQuH-13" target="32RbRDJqCRU-e4tndQuH-14" edge="1">
          <mxGeometry width="50" height="50" relative="1" as="geometry">
            <mxPoint x="371.25" y="330" as="sourcePoint" />
            <mxPoint x="421.25" y="280" as="targetPoint" />
          </mxGeometry>
        </mxCell>
        <mxCell id="32RbRDJqCRU-e4tndQuH-22" value="" style="endArrow=classic;html=1;fontFamily=Raleway;fontSource=https%3A%2F%2Ffonts.googleapis.com%2Fcss%3Ffamily%3DRaleway;fontSize=12;fontColor=default;curved=1;exitX=1;exitY=0.5;exitDx=0;exitDy=0;entryX=0;entryY=0.5;entryDx=0;entryDy=0;" parent="1" source="32RbRDJqCRU-e4tndQuH-14" target="32RbRDJqCRU-e4tndQuH-15" edge="1">
          <mxGeometry width="50" height="50" relative="1" as="geometry">
            <mxPoint x="341.25" y="445" as="sourcePoint" />
            <mxPoint x="401.25" y="445" as="targetPoint" />
          </mxGeometry>
        </mxCell>
        <mxCell id="32RbRDJqCRU-e4tndQuH-23" value="Database" style="text;html=1;strokeColor=none;fillColor=none;align=center;verticalAlign=middle;whiteSpace=wrap;rounded=0;shadow=1;dashed=1;labelBackgroundColor=none;labelBorderColor=none;sketch=0;fontFamily=Raleway;fontSource=https%3A%2F%2Ffonts.googleapis.com%2Fcss%3Ffamily%3DRaleway;fontSize=12;fontColor=#333333;glass=0;fontStyle=1;" parent="1" vertex="1">
          <mxGeometry x="540" y="270" width="60" height="30" as="geometry" />
        </mxCell>
        <mxCell id="32RbRDJqCRU-e4tndQuH-24" value="" style="endArrow=classic;html=1;fontFamily=Raleway;fontSource=https%3A%2F%2Ffonts.googleapis.com%2Fcss%3Ffamily%3DRaleway;fontSize=12;fontColor=#333333;curved=1;labelPosition=center;verticalLabelPosition=middle;align=center;verticalAlign=middle;labelBackgroundColor=default;entryX=0;entryY=0.5;entryDx=0;entryDy=0;" parent="1" target="32RbRDJqCRU-e4tndQuH-13" edge="1">
          <mxGeometry relative="1" as="geometry">
            <mxPoint x="156.25" y="435" as="sourcePoint" />
            <mxPoint x="406.25" y="360" as="targetPoint" />
          </mxGeometry>
        </mxCell>
        <mxCell id="32RbRDJqCRU-e4tndQuH-25" value="SQL&lt;br&gt;Query" style="edgeLabel;resizable=0;html=1;align=center;verticalAlign=middle;rounded=0;shadow=1;glass=0;dashed=1;labelBackgroundColor=default;labelBorderColor=none;sketch=0;fontFamily=Raleway;fontSource=https%3A%2F%2Ffonts.googleapis.com%2Fcss%3Ffamily%3DRaleway;fontSize=12;fontColor=#333333;fillColor=default;" parent="32RbRDJqCRU-e4tndQuH-24" connectable="0" vertex="1">
          <mxGeometry relative="1" as="geometry" />
        </mxCell>
        <mxCell id="32RbRDJqCRU-e4tndQuH-26" value="" style="endArrow=classic;html=1;fontFamily=Raleway;fontSource=https%3A%2F%2Ffonts.googleapis.com%2Fcss%3Ffamily%3DRaleway;fontSize=12;fontColor=#333333;curved=1;labelPosition=center;verticalLabelPosition=middle;align=center;verticalAlign=middle;labelBackgroundColor=default;exitX=1;exitY=0.5;exitDx=0;exitDy=0;" parent="1" source="32RbRDJqCRU-e4tndQuH-15" edge="1">
          <mxGeometry relative="1" as="geometry">
            <mxPoint x="626.25" y="490" as="sourcePoint" />
            <mxPoint x="683.75" y="435" as="targetPoint" />
          </mxGeometry>
        </mxCell>
        <mxCell id="32RbRDJqCRU-e4tndQuH-27" value="SQL&lt;br&gt;Result" style="edgeLabel;resizable=0;html=1;align=center;verticalAlign=middle;rounded=0;shadow=1;glass=0;dashed=1;labelBackgroundColor=default;labelBorderColor=none;sketch=0;fontFamily=Raleway;fontSource=https%3A%2F%2Ffonts.googleapis.com%2Fcss%3Ffamily%3DRaleway;fontSize=12;fontColor=#333333;fillColor=default;" parent="32RbRDJqCRU-e4tndQuH-26" connectable="0" vertex="1">
          <mxGeometry relative="1" as="geometry" />
        </mxCell>
      </root>
    </mxGraphModel>
  </diagram>
</mxfile>
